<svg width="24" height="25" viewBox="0 0 24 25" fill="none" xmlns="http://www.w3.org/2000/svg">
<path d="M12 4.76562C7.73527 4.76562 4.26562 8.23527 4.26562 12.5C4.26562 16.7647 7.73527 20.2344 12 20.2344C16.2647 20.2344 19.7344 16.7647 19.7344 12.5C19.7344 8.23527 16.2647 4.76562 12 4.76562ZM15.6728 17.5557L12 16.0706L8.32716 17.5558L8.60386 13.6035L6.05709 10.5692L9.90094 9.61067L12 6.25086L14.0991 9.61063L17.9429 10.5692L15.3961 13.6034L15.6728 17.5557Z" fill="black"/>
<path d="M13.2087 10.8382L12.0009 8.90527L10.793 10.8382L8.58203 11.3889L10.0467 13.135L9.88806 15.4078L12.0009 14.5543L14.1137 15.4078L13.955 13.135L15.4197 11.3889L13.2087 10.8382Z" fill="black"/>
<path d="M12 0.5C5.40891 0.5 0 5.90891 0 12.5C0 19.0911 5.40891 24.5 12 24.5C18.5911 24.5 24 19.0911 24 12.5C24 5.90891 18.5911 0.5 12 0.5ZM12 21.6406C6.96 21.6406 2.85938 17.54 2.85938 12.5C2.85938 7.46 6.96 3.35938 12 3.35938C17.04 3.35938 21.1406 7.46 21.1406 12.5C21.1406 17.54 17.04 21.6406 12 21.6406Z" fill="black"/>
</svg>
