<svg width="24" height="25" viewBox="0 0 24 25" fill="none" xmlns="http://www.w3.org/2000/svg">
<path d="M21.2756 6.71325C23.4343 4.55451 23.8604 1.54023 23.8775 1.41296L24 0.5L23.087 0.622534C22.9598 0.639597 19.9455 1.0657 17.7867 3.22449C15.9556 5.05562 15.3712 7.5019 15.2256 8.28004L12.9831 10.5225C13.1264 9.60354 13.1686 8.52975 12.9481 7.42136C12.3525 4.42705 10.083 2.39811 9.98664 2.31322L9.2956 1.70411L8.8903 2.53129C8.83382 2.64655 7.51346 5.38956 8.10902 8.38387C8.534 10.5202 9.81077 12.1648 10.5427 12.9629L7.34822 16.1574C7.49152 15.2384 7.53371 14.1646 7.31325 13.0562C6.71759 10.0619 4.44808 8.03296 4.35175 7.94806L3.6607 7.33895L3.25541 8.16613C3.19893 8.2814 1.87856 11.0244 2.47413 14.0187C2.8991 16.155 4.17587 17.7996 4.9078 18.5977L0 23.5056L0.994385 24.5L5.90218 19.5922C6.7003 20.3241 8.3449 21.6009 10.4812 22.0259C11.0302 22.1351 11.5705 22.1799 12.088 22.1799C14.3928 22.1799 16.2396 21.2908 16.3338 21.2446L17.161 20.8393L16.5518 20.1483C16.4669 20.052 14.438 17.7824 11.4437 17.1868C10.3353 16.9663 9.26147 17.0086 8.34246 17.1519L11.537 13.9573C12.3351 14.6892 13.9797 15.966 16.116 16.391C16.665 16.5002 17.2053 16.545 17.7228 16.545C20.0276 16.545 21.8744 15.6559 21.9686 15.6097L22.7958 15.2044L22.1867 14.5134C22.1018 14.4171 20.0729 12.1475 17.0786 11.5519C15.9702 11.3314 14.8964 11.3737 13.9774 11.517L16.2198 9.27452C16.9981 9.12883 19.4444 8.54442 21.2756 6.71325Z" fill="black"/>
</svg>
