<svg width="24" height="25" viewBox="0 0 24 25" fill="none" xmlns="http://www.w3.org/2000/svg">
<path d="M7.77625 6.72656C7.38377 6.72656 7.06445 7.04588 7.06445 7.43836C7.06445 7.83084 7.38377 8.15016 7.77625 8.15016C8.16873 8.15016 8.48805 7.83084 8.48805 7.43836C8.48805 7.04588 8.16873 6.72656 7.77625 6.72656Z" fill="black"/>
<path d="M24 0.5H22.9822L20.963 2.51923L18.9439 0.5H17.9556L15.2567 3.19892L12.5578 0.5H0V6.45711L2.12845 8.58556L0 10.7141V24.5H1.0178L3.03698 22.4809L5.05612 24.5H6.04439L8.74327 21.8011L11.4422 24.5H24V18.5429L21.8715 16.4144L24 14.2859V0.5ZM7.77609 5.32025C8.94398 5.32025 9.89414 6.27041 9.89414 7.4383C9.89414 8.60619 8.94398 9.55634 7.77609 9.55634C6.6082 9.55634 5.65805 8.60619 5.65805 7.4383C5.65805 6.27041 6.6082 5.32025 7.77609 5.32025ZM18.0239 18.4795L17.0295 19.4738L15.8767 18.321L14.7239 19.4738L13.7295 18.4795L14.8823 17.3267L13.7295 16.1739L14.7239 15.1795L15.8767 16.3323L17.0295 15.1795L18.0239 16.1739L16.8711 17.3267L18.0239 18.4795ZM15.1667 13.0856H8.83327C7.85784 13.0856 7.0643 13.8792 7.0643 14.8545C7.0643 15.8299 7.85789 16.6235 8.83327 16.6235H12V18.0297H8.83327C7.08244 18.0297 5.65805 16.6053 5.65805 14.8545C5.65805 13.1038 7.08248 11.6793 8.83327 11.6793H15.1667C16.1421 11.6793 16.9357 10.8858 16.9357 9.91039C16.9357 8.93502 16.1421 8.14142 15.1667 8.14142H12V6.73517H15.1667C16.9176 6.73517 18.342 8.15956 18.342 9.91034C18.342 11.6611 16.9175 13.0856 15.1667 13.0856Z" fill="black"/>
</svg>
