<svg width="24" height="25" viewBox="0 0 24 25" fill="none" xmlns="http://www.w3.org/2000/svg">
<path d="M8.65261 20.2647H15.4313L15.1551 18.1471H8.9112L8.65261 20.2647ZM0 6.89708H5.64706V9.63238H0V6.89708ZM9.77313 11.0882L9.51454 13.2059H14.5106L14.2343 11.0882H9.77313ZM0 20.2647H4.23529V24.5H0V20.2647ZM0 17.4412H4.23529V18.8529H0V17.4412ZM7.05882 0.5H16.9412V3.32353H7.05882V0.5ZM9.88235 7.55882H11.2941V9.67647H12.7059V7.55882H14.1176V9.67647H16.9412V4.73529H7.05882V9.67647H9.88235V7.55882ZM9.08358 16.7353H14.971L14.6947 14.6176H9.34216L9.08358 16.7353ZM19.7647 17.4412H24V18.8529H19.7647V17.4412ZM19.7647 20.2647H24V24.5H19.7647V20.2647ZM18.3529 6.85294H24V9.67647H18.3529V6.85294Z" fill="black"/>
<path d="M1.41211 11.0881V16.0293H5.6474V20.2646H7.2307L8.35126 11.0881H1.41211ZM5.6474 21.6764H18.3533V24.4999H5.6474V21.6764ZM22.5886 11.0881H15.6584L16.8554 20.2646H18.3533V16.0293H22.5886V11.0881Z" fill="black"/>
</svg>
