<svg width="24" height="25" viewBox="0 0 24 25" fill="none" xmlns="http://www.w3.org/2000/svg">
<path d="M19.4066 0.5C17.1128 0.5 15.2064 2.19005 14.867 4.39035H23.9462C23.6068 2.19005 21.7004 0.5 19.4066 0.5ZM24 24.5V5.79653H14.8132V11.5053H17.0609L22.1984 17.2138V24.5H24ZM17.1209 7.46727H18.5271V9.57734H17.1209V7.46727ZM20.2861 9.57734V7.46727H21.6923V9.57734H20.2861ZM4.98052 5.79653L7.54212 8.34018H13.407V5.79653H4.98052ZM7.95539 9.74636H13.407V11.5053H7.95539V9.74636ZM1.80156 17.2138L6.54921 11.9386V9.33599L3.27463 6.08429L0 9.33595V24.5H1.80156V17.2138ZM2.57154 9.31359H3.97772V11.4237H2.57154V9.31359Z" fill="black"/>
<path d="M4.96593 19.0669H9.5373V24.4999H11.2962V17.7533L7.25159 13.2593L3.20703 17.7533V24.4999H4.96593V19.0669ZM19.916 16.7804L16.4339 12.9114H8.83032L12.3124 16.7804H19.916ZM12.7024 18.1866H20.7915V24.4999H12.7024V18.1866Z" fill="black"/>
<path d="M6.37305 20.4731H8.13199V24.4999H6.37305V20.4731Z" fill="black"/>
</svg>
