<svg width="24" height="25" viewBox="0 0 24 25" fill="none" xmlns="http://www.w3.org/2000/svg">
<path d="M2.15606 18.871C2.54409 18.871 2.85919 18.5558 2.85919 18.168C2.85919 17.7802 2.54409 17.4651 2.15606 17.4651C1.76827 17.4651 1.45312 17.7802 1.45312 18.168C1.45312 18.5558 1.76827 18.871 2.15606 18.871ZM7.07705 18.871V17.4651H4.13564C4.21439 17.6861 4.26506 17.9205 4.26506 18.168C4.26506 18.4156 4.21434 18.6499 4.13564 18.871H7.07705Z" fill="black"/>
<path d="M2.85938 11.8414V13.2472H8.48311V24.4949H11.295V21.5535C10.4786 21.2623 9.88898 20.4892 9.88898 19.574C9.88898 18.6588 10.4786 17.8857 11.295 17.5946V3.67409L9.88898 2.92409V0.5H8.48311V2.92414L5.67117 4.37703V7.18878L2.85938 8.59484V10.4352H7.07719V11.8413L2.85938 11.8414ZM8.48311 6.21748H9.88898V7.62355H8.48311V6.21748ZM8.48311 9.02942H9.88898V10.4353H8.48311V9.02942ZM16.9188 24.4948V12.2759L12.701 10.1669V17.5946C13.5174 17.8857 14.1068 18.6588 14.1068 19.574C14.1068 20.4893 13.5174 21.2624 12.7009 21.5535V24.4949H14.1068V21.683H15.5129V24.4949L16.9188 24.4948ZM14.1068 13.2472H15.5129V14.6532H14.1068V13.2472ZM14.1068 17.465V16.0592H15.5129V17.4651L14.1068 17.465Z" fill="black"/>
<path d="M1.45312 14.6531H7.07709V16.0592H1.45312V14.6531ZM22.5423 21.5534C22.3215 21.6321 22.0871 21.6829 21.8393 21.6829C20.6765 21.6829 19.7305 20.7368 19.7305 19.5739V18.168C19.7305 17.0051 20.6765 16.0592 21.8393 16.0592C22.0871 16.0592 22.3215 16.1099 22.5423 16.1886V14.6531H19.7305V13.2471H22.5423V11.5501L19.7305 8.73824V4.81152H18.3245V5.71059L14.1067 7.11684V9.29784L18.3245 11.4066V24.4948H23.9953V23.0887H22.5423V21.5534Z" fill="black"/>
<path d="M21.136 18.168V19.5739C21.136 19.9619 21.4512 20.277 21.839 20.277C22.2268 20.277 22.542 19.9619 22.542 19.5739V18.168C22.542 17.7802 22.2268 17.4651 21.839 17.4651C21.4512 17.4651 21.136 17.7802 21.136 18.168ZM1.45275 20.277V23.0888H0V24.4949H4.26469V21.6829H5.67061V24.4949H7.07667V20.2771L1.45275 20.277ZM12.7004 19.5739C12.7004 19.9623 12.3856 20.277 11.9974 20.277C11.6092 20.277 11.2945 19.9623 11.2945 19.5739C11.2945 19.1857 11.6093 18.871 11.9974 18.871C12.3856 18.871 12.7004 19.1857 12.7004 19.5739Z" fill="black"/>
</svg>
