<svg width="24" height="21" viewBox="0 0 24 21" fill="none" xmlns="http://www.w3.org/2000/svg">
<path d="M20.9998 15.3637C20.4514 15.3637 20.2085 15.2119 19.8723 15.0018C19.462 14.7454 18.9513 14.4262 17.9996 14.4262C17.0479 14.4262 16.5372 14.7454 16.1269 15.0018C15.7908 15.2119 15.5479 15.3637 14.9995 15.3637C14.4512 15.3637 14.2083 15.2119 13.8722 15.0018C13.4619 14.7454 12.9512 14.4262 11.9996 14.4262C11.048 14.4262 10.5373 14.7454 10.127 15.0018C9.79092 15.2119 9.54806 15.3637 8.99977 15.3637C8.45142 15.3637 8.20856 15.2119 7.87247 15.0018C7.46212 14.7454 6.95147 14.4262 5.99981 14.4262C5.04816 14.4262 4.5375 14.7454 4.12716 15.0018C3.79106 15.2119 3.54816 15.3637 2.99986 15.3637C2.45156 15.3637 2.2087 15.2119 1.87261 15.0018C1.46231 14.7454 0.951656 14.4262 0 14.4262V15.8325C0.548297 15.8325 0.791156 15.9842 1.12725 16.1943C1.53755 16.4508 2.0482 16.77 2.99986 16.77C3.95152 16.77 4.46217 16.4508 4.87252 16.1943C5.20861 15.9843 5.45152 15.8325 5.99981 15.8325C6.54811 15.8325 6.79102 15.9842 7.12711 16.1943C7.53745 16.4508 8.04811 16.77 8.99977 16.77C9.95138 16.77 10.462 16.4508 10.8723 16.1943C11.2084 15.9843 11.4513 15.8325 11.9996 15.8325C12.5479 15.8325 12.7908 15.9842 13.1269 16.1943C13.5373 16.4508 14.0479 16.77 14.9996 16.77C15.9512 16.77 16.4619 16.4508 16.8722 16.1943C17.2084 15.9842 17.4513 15.8325 17.9996 15.8325C18.548 15.8325 18.7909 15.9842 19.1271 16.1943C19.5374 16.4508 20.0481 16.77 20.9998 16.77C21.9515 16.77 22.4622 16.4508 22.8726 16.1943C23.2087 15.9842 23.4516 15.8325 24 15.8325V14.4262C23.0483 14.4262 22.5376 14.7454 22.1273 15.0018C21.7911 15.2119 21.5482 15.3637 20.9998 15.3637ZM14.9996 18.7171C14.4512 18.7171 14.2084 18.5653 13.8723 18.3552C13.4619 18.0987 12.9513 17.7796 11.9996 17.7796C11.048 17.7796 10.5374 18.0987 10.1271 18.3552C9.79097 18.5652 9.54811 18.7171 8.99981 18.7171C8.45147 18.7171 8.20861 18.5653 7.87252 18.3552C7.46217 18.0987 6.95152 17.7796 5.99986 17.7796V19.1858C6.5482 19.1858 6.79106 19.3376 7.12716 19.5477C7.5375 19.8041 8.04816 20.1233 8.99981 20.1233C9.95142 20.1233 10.4621 19.8041 10.8724 19.5477C11.2085 19.3376 11.4513 19.1858 11.9996 19.1858C12.548 19.1858 12.7908 19.3376 13.127 19.5477C13.5373 19.8041 14.048 20.1233 14.9996 20.1233C15.9513 20.1233 16.462 19.8041 16.8723 19.5477C17.2084 19.3376 17.4513 19.1858 17.9997 19.1858V17.7796C17.048 17.7796 16.5373 18.0987 16.127 18.3552C15.7908 18.5653 15.5479 18.7171 14.9996 18.7171ZM7.87247 10.1954C8.20856 10.4054 8.45147 10.5572 8.99977 10.5572C9.54806 10.5572 9.79088 10.4055 10.127 10.1954C10.5373 9.93891 11.048 9.61974 11.9996 9.61974C12.9512 9.61974 13.4619 9.93891 13.8722 10.1954C14.2083 10.4054 14.4512 10.5572 14.9995 10.5572C15.5479 10.5572 15.7907 10.4055 16.1269 10.1954C16.5372 9.93891 17.0479 9.61974 17.9996 9.61974C18.2235 9.61974 18.4223 9.63793 18.6019 9.6683C17.785 6.79187 15.1345 4.67897 11.9998 4.67897C8.86509 4.67897 6.21464 6.79186 5.3977 9.66826C5.57723 9.63788 5.77594 9.61974 5.99981 9.61974C6.95147 9.61974 7.46212 9.93891 7.87247 10.1954ZM11.304 0.876709H12.7103V3.39807H11.304V0.876709ZM6.74653 2.23393L8.01356 1.62362L9.10786 3.89536L7.84083 4.50568L6.74653 2.23393ZM3.23147 5.43821L4.10897 4.33852L6.08067 5.91188L5.20312 7.01157L3.23147 5.43821ZM1.45003 9.85074L1.76363 8.47965L4.22189 9.04191L3.9083 10.413L1.45003 9.85074ZM19.7898 9.04172L22.2481 8.47946L22.5617 9.85055L20.1034 10.4128L19.7898 9.04172ZM17.9386 5.91188L19.9103 4.33857L20.7878 5.43826L18.8161 7.01157L17.9386 5.91188ZM14.9078 3.90258L16.002 1.63083L17.2691 2.24115L16.1748 4.5129L14.9078 3.90258ZM20.9998 11.9869C20.4514 11.9869 20.2085 11.8351 19.8723 11.6251C19.462 11.3686 18.9513 11.0494 17.9996 11.0494C17.0479 11.0494 16.5372 11.3686 16.1269 11.6251C15.7908 11.8351 15.5479 11.9869 14.9995 11.9869C14.4512 11.9869 14.2083 11.8351 13.8722 11.6251C13.4619 11.3686 12.9512 11.0494 11.9996 11.0494C11.048 11.0494 10.5373 11.3686 10.127 11.6251C9.79092 11.8351 9.54806 11.9869 8.99977 11.9869C8.45142 11.9869 8.20856 11.8351 7.87247 11.6251C7.46212 11.3686 6.95147 11.0494 5.99981 11.0494C5.04816 11.0494 4.5375 11.3686 4.12716 11.6251C3.79106 11.8351 3.54816 11.9869 2.99986 11.9869C2.45156 11.9869 2.2087 11.8351 1.87261 11.6251C1.46231 11.3686 0.951656 11.0494 0 11.0494V12.4557C0.548297 12.4557 0.791156 12.6075 1.12725 12.8176C1.53755 13.074 2.0482 13.3932 2.99986 13.3932C3.95152 13.3932 4.46217 13.074 4.87252 12.8176C5.20861 12.6075 5.45152 12.4557 5.99981 12.4557C6.54811 12.4557 6.79102 12.6075 7.12711 12.8176C7.53745 13.074 8.04811 13.3932 8.99977 13.3932C9.95138 13.3932 10.462 13.074 10.8723 12.8176C11.2084 12.6075 11.4513 12.4557 11.9996 12.4557C12.5479 12.4557 12.7908 12.6075 13.1269 12.8176C13.5373 13.074 14.0479 13.3932 14.9996 13.3932C15.9512 13.3932 16.4619 13.074 16.8722 12.8176C17.2084 12.6075 17.4513 12.4557 17.9996 12.4557C18.548 12.4557 18.7909 12.6075 19.1271 12.8176C19.5374 13.074 20.0481 13.3932 20.9998 13.3932C21.9515 13.3932 22.4622 13.074 22.8726 12.8176C23.2087 12.6075 23.4516 12.4557 24 12.4557V11.0494C23.0483 11.0494 22.5376 11.3686 22.1273 11.6251C21.7911 11.8351 21.5482 11.9869 20.9998 11.9869Z" fill="black"/>
</svg>
