<svg width="24" height="25" viewBox="0 0 24 25" fill="none" xmlns="http://www.w3.org/2000/svg">
<path d="M3.67677 16.3147C3.67677 14.4107 4.69114 12.6925 6.31123 11.7676C6.13428 11.2244 6.04494 10.6582 6.04494 10.077C6.04494 8.17503 7.0138 6.44182 8.60403 5.44357C8.59137 5.28706 8.58505 5.13087 8.58505 4.97609C8.58505 4.02096 8.81445 3.11843 9.22086 2.32053C9.04391 2.30084 8.86461 2.29053 8.68301 2.29053C6.07723 2.29053 3.95727 4.4105 3.95727 7.01628C3.95727 7.10998 3.96017 7.20434 3.96594 7.29898C2.72975 8.11156 1.98008 9.48382 1.98008 10.9868C1.98008 11.4132 2.0397 11.8296 2.15787 12.2312C0.911516 12.992 0.136719 14.346 0.136719 15.842C0.136719 18.1769 2.03628 20.0765 4.37117 20.0765H5.273C4.28933 19.1234 3.67677 17.7893 3.67677 16.3147Z" fill="black"/>
<path d="M13.7522 23.0823H9.38536V21.5544H8.91581C8.59612 21.5544 8.28309 21.5256 7.97911 21.4704V23.0823H0V24.4886H24V23.0823H15.1584V20.1482H19.9948C22.1086 20.1482 23.8284 18.4284 23.8284 16.3146C23.8284 14.7496 22.8915 13.356 21.4417 12.7644L20.7544 12.4839L21.0717 11.8128C21.3295 11.2675 21.4602 10.6835 21.4602 10.0769C21.4602 8.53876 20.6071 7.14896 19.2339 6.44987L18.7755 6.21648L18.8592 5.70882C18.8994 5.46662 18.9198 5.22154 18.9201 4.97603C18.9201 2.51415 16.9172 0.51123 14.4553 0.51123C11.9934 0.51123 9.99052 2.51415 9.99052 4.97603C9.99052 5.21725 10.011 5.46376 10.0515 5.70882L10.1352 6.21648L9.67673 6.44987C8.30353 7.14896 7.45045 8.53876 7.45045 10.0769C7.45045 10.6834 7.58119 11.2675 7.83895 11.8129L8.15616 12.4839L7.46892 12.7644C6.01908 13.3561 5.08223 14.7496 5.08223 16.3146C5.08223 18.4285 6.80198 20.1482 8.91581 20.1482H13.7522V23.0823ZM10.4444 13.6419L11.4387 12.6475L13.7522 14.961V12.2892L11.2201 9.75714L12.2145 8.76278L13.7522 10.3005V7.77203H15.1584V10.2737L16.6694 8.76278L17.6637 9.75714L15.1584 12.2624V14.9342L17.4451 12.6476L18.4395 13.6419L15.1584 16.923V20.1472H13.7522V16.9497L10.4444 13.6419Z" fill="black"/>
</svg>
