<svg width="24" height="25" viewBox="0 0 24 25" fill="none" xmlns="http://www.w3.org/2000/svg">
<path d="M19.2034 24.5V11.5691H12.7031V12.5527C12.7031 13.4729 13.4518 14.2216 14.372 14.2216C16.0676 14.2216 17.4471 15.601 17.4471 17.2967V24.5H19.2034Z" fill="black"/>
<path d="M16.0406 24.5V17.2967C16.0406 16.3765 15.2919 15.6278 14.3717 15.6278C12.6761 15.6278 11.2966 14.2483 11.2966 12.5527V11.5691H7.95898V18.8779C7.95898 19.7981 8.70762 20.5468 9.62783 20.5468C11.3234 20.5468 12.7029 21.9263 12.7029 23.6219V24.5H16.0406Z" fill="black"/>
<path d="M11.2962 23.6218C11.2962 22.7016 10.5476 21.953 9.62736 21.953C7.93175 21.953 6.55227 20.5735 6.55227 18.8779V11.5691H4.79591V24.5H11.2962V23.6218ZM19.9058 8.4065H4.09283C3.60861 8.4065 3.21467 8.80044 3.21467 9.28466C3.21467 9.76888 3.60861 10.1628 4.09283 10.1628H19.9058C20.39 10.1628 20.784 9.76888 20.784 9.28466C20.784 8.80044 20.39 8.4065 19.9058 8.4065ZM0.113281 0.5C0.446938 2.39412 2.10448 3.83764 4.09283 3.83764H19.9058C21.8942 3.83764 23.5517 2.39412 23.8854 0.5H0.113281ZM4.79595 5.24389H19.2027V7.00025H4.79595V5.24389Z" fill="black"/>
</svg>
