<svg width="24" height="25" viewBox="0 0 24 25" fill="none" xmlns="http://www.w3.org/2000/svg">
<path d="M16.8188 17.3875C14.1647 16.6373 11.3453 16.5199 8.63583 17.0427C8.58222 17.2629 8.52465 17.4822 8.46316 17.7004C8.00775 19.3117 7.3371 20.8553 6.47745 22.289C8.18832 21.5062 10.0624 21.0934 12 21.0934C15.3127 21.0934 18.4403 22.298 20.8824 24.5L23.977 21.4053C21.9382 19.5225 19.4774 18.1389 16.8188 17.3875ZM15.0646 15.565C14.7365 13.5369 14.7376 11.4613 15.065 9.43593C14.0525 9.59953 13.0285 9.68168 12.0029 9.68158C10.9755 9.68143 9.94975 9.59896 8.93551 9.43495C9.26359 11.4632 9.26251 13.539 8.93509 15.5646C10.9633 15.2365 13.0391 15.2376 15.0646 15.565ZM7.45742 9.13611C7.23712 9.08239 7.01781 9.02471 6.79958 8.96312C5.18835 8.5077 3.64471 7.83705 2.21097 6.9774C2.9938 8.68828 3.4066 10.5623 3.4066 12.5C3.4066 15.8127 2.20198 18.9402 0 21.3823L3.09466 24.477C4.97751 22.4381 6.36115 19.9773 7.11259 17.3188C7.86273 14.6648 7.98006 11.8454 7.45742 9.13611ZM16.5427 15.8642C16.763 15.9178 16.9823 15.9754 17.2005 16.0369C18.8117 16.4923 20.3553 17.163 21.7891 18.0226C21.0062 16.3117 20.5934 14.4376 20.5934 12.5C20.5934 9.18734 21.7981 6.05979 24 3.61768L20.9054 0.523063C19.0225 2.56192 17.6389 5.0227 16.8875 7.68127C16.1373 10.3353 16.02 13.1548 16.5427 15.8642ZM7.18132 7.61259C9.83539 8.36278 12.6548 8.4801 15.3643 7.95737C15.4179 7.73711 15.4755 7.51782 15.537 7.29963C15.9924 5.68835 16.663 4.14471 17.5227 2.71101C15.8118 3.4938 13.9377 3.9066 12 3.9066C8.68739 3.9066 5.55984 2.70199 3.11772 0.5L0.0231098 3.59466C2.06192 5.47751 4.5227 6.86115 7.18132 7.61259Z" fill="black"/>
</svg>
