<svg width="24" height="25" viewBox="0 0 24 25" fill="none" xmlns="http://www.w3.org/2000/svg">
<path d="M9.1875 13.2031C9.57614 13.2031 9.89062 12.8886 9.89062 12.5C9.89062 12.1114 9.57614 11.7969 9.1875 11.7969H7.78125C7.39261 11.7969 7.07812 12.1114 7.07812 12.5V17.4219H11.2969V14.6094H8.48438V13.2031H9.1875ZM0.703125 8.98438H4.96875C5.35739 8.98438 5.67188 8.66989 5.67188 8.28125V0.5H0.703125C0.314484 0.5 0 0.814484 0 1.20312V8.28125C0 8.66989 0.314484 8.98438 0.703125 8.98438ZM23.2969 0.5H18.3281V8.28125C18.3281 8.66989 18.6426 8.98438 19.0312 8.98438H23.2969C23.6855 8.98438 24 8.66989 24 8.28125V1.20312C24 0.814484 23.6855 0.5 23.2969 0.5ZM16.9219 15.3125V12.5C16.9219 12.1114 16.6074 11.7969 16.2188 11.7969H14.8125C14.4239 11.7969 14.1094 12.1114 14.1094 12.5C14.1094 12.8886 14.4239 13.2031 14.8125 13.2031H15.5156V14.6094H12.7031V17.4219H16.9219V15.3125ZM7.07812 24.5H16.9219V18.8281H7.07812V24.5ZM10.5938 20.9375H13.4062C13.7949 20.9375 14.1094 21.252 14.1094 21.6406C14.1094 22.0293 13.7949 22.3438 13.4062 22.3438H10.5938C10.2051 22.3438 9.89062 22.0293 9.89062 21.6406C9.89062 21.252 10.2051 20.9375 10.5938 20.9375ZM0.703125 24.5H5.67188V14.6094H0.703125C0.314484 14.6094 0 14.9239 0 15.3125V23.7969C0 24.1855 0.314484 24.5 0.703125 24.5ZM23.2969 14.6094H18.3281V24.5H23.2969C23.6855 24.5 24 24.1855 24 23.7969V15.3125C24 14.9239 23.6855 14.6094 23.2969 14.6094ZM7.07812 0.5H16.9219V4.0625H7.07812V0.5ZM16.9219 5.46875H7.07812V7.16614L8.69039 8.77841C8.75566 8.84371 8.83315 8.89552 8.91845 8.93086C9.00375 8.9662 9.09517 8.98439 9.1875 8.98438H14.8125C14.9993 8.98438 15.1778 8.91022 15.3096 8.77836L16.9219 7.16614V5.46875Z" fill="black"/>
</svg>
