<svg width="22" height="25" viewBox="0 0 22 25" fill="none" xmlns="http://www.w3.org/2000/svg">
<path d="M10.9995 21.4678C9.81469 21.4673 8.66466 21.2346 7.58133 20.776C7.24591 20.634 6.91964 20.4713 6.6044 20.2888C5.46477 21.3326 4.74997 22.8327 4.74997 24.4999H17.25C17.25 22.8327 16.5353 21.3326 15.3956 20.2888C15.0804 20.4713 14.7541 20.634 14.4187 20.776C13.3354 21.2346 12.1854 21.4673 10.9995 21.4678ZM2.21951 12.684C2.21955 12.3871 2.24069 12.0902 2.28213 11.7967H0.967659C0.550845 12.2632 0.296875 12.8779 0.296875 13.5512C0.296875 15.0047 1.49336 16.1873 2.94692 16.1873C2.48876 15.1037 2.21951 13.8691 2.21951 12.684ZM21.2364 12.056H19.7497C19.7701 12.2634 19.7805 12.4731 19.7805 12.6843C19.7805 13.8691 19.5113 15.1037 19.0531 16.1873C20.5067 16.1873 21.7032 15.0047 21.7032 13.5512C21.7032 12.9963 21.5304 12.4812 21.2364 12.056ZM3.70948 3.62378C2.80845 4.14691 2.08549 4.86002 1.57507 5.7401C0.821689 7.03915 0.545173 8.64833 0.757424 10.3905H3.00035C3.91292 10.0057 5.0683 9.38221 5.98035 8.14906C4.78935 6.8846 4.02237 5.3598 3.70948 3.62378ZM11 20.0615C15.073 20.0599 18.3743 16.7576 18.3743 12.6843C18.3743 12.4742 18.3609 12.2643 18.3343 12.056C18.3343 12.056 16.0232 12.0477 15.6719 12.0285V13.4835H14.2657V11.9002C12.0375 11.6142 9.94571 10.9473 8.28567 9.96899C7.83276 9.70208 7.41126 9.4131 7.02107 9.10354C5.91974 10.5425 4.75011 11.179 3.746 11.6024C3.66603 11.9575 3.6257 12.3204 3.62576 12.6844C3.62576 16.7576 6.92704 20.0599 11 20.0615ZM6.32812 13.4834V12.0772H7.73437V13.4834H6.32812ZM11 14.7803C11.4617 14.7803 11.8923 14.5316 12.1239 14.1313L13.3411 14.8355C12.859 15.6688 11.962 16.1865 11.0001 16.1865C10.0381 16.1865 9.14105 15.6688 8.65899 14.8354L9.87629 14.1313C10.1078 14.5316 10.5384 14.7803 11 14.7803Z" fill="black"/>
<path d="M19.8949 5.48856C19.0665 3.94229 17.7963 2.69316 16.1195 1.77595C14.1349 0.690227 11.8815 0.277678 9.77476 0.614336C8.34858 0.842196 7.10128 1.39148 6.18942 2.17247C5.86457 1.5659 5.26752 0.910634 4.16938 0.53732L3.7168 1.86876C3.97025 1.95492 4.17917 2.06287 4.352 2.18226C4.71955 2.43623 4.93302 2.76849 5.04458 3.03056C5.37885 5.47398 6.70143 7.40336 8.99916 8.75745C11.1125 10.0029 14.0236 10.6924 16.9871 10.6498L16.9972 10.6498H20.9975C21.0607 8.70809 20.6908 6.97436 19.8949 5.48856Z" fill="black"/>
</svg>
