<svg width="24" height="23" viewBox="0 0 24 23" fill="none" xmlns="http://www.w3.org/2000/svg">
<path d="M0 19.9705H2.11765V22.794H0V19.9705ZM13.4118 19.9705H15.5294V22.794H13.4118V19.9705Z" fill="black"/>
<path d="M13.1052 13.9772L11.2941 13.7751C11.078 13.9317 9.99398 15.4792 7.76471 15.4792C5.53209 15.4792 4.45619 13.9351 4.23534 13.7751L2.42424 13.9772C1.03322 14.1759 0 15.3672 0 16.7724V18.5588H3.52941V22.7941H12V18.5588H15.5294V16.7724C15.5294 15.3672 14.4962 14.1759 13.1052 13.9772ZM8.47059 19.2647H7.05882V17.8529H8.47059V19.2647Z" fill="black"/>
<path d="M5.6474 11.7284V13.1902C6.81696 14.3598 8.71315 14.3598 9.8827 13.1902V11.7284C8.54576 12.3652 6.98453 12.3653 5.6474 11.7284ZM11.2945 7.26463V5.14699H4.23564V7.26463C4.23564 9.21386 5.81583 10.794 7.76505 10.794C9.71428 10.794 11.2945 9.21386 11.2945 7.26463ZM4.23564 3.73522H11.2945V3.44501C11.2945 1.65607 9.8442 0.205811 8.05526 0.205811H6.35329V1.61758L3.52976 0.205811H1.41211V0.496022C1.41211 2.28496 2.44665 3.73522 4.23564 3.73522ZM16.9415 12.2058V22.794H24.0003V12.2058H16.9415ZM21.1768 19.9705H19.7651V18.5588H21.1768V19.9705Z" fill="black"/>
</svg>
