<svg width="24" height="23" viewBox="0 0 24 23" fill="none" xmlns="http://www.w3.org/2000/svg">
<path d="M5.3093 5.09602C2.77461 5.09602 1.1393 6.85244 1.06895 6.92987L0.762891 7.26681L1.42342 8.77923L0 9.61458L0.0495877 10.0671C0.0613987 10.1749 0.376454 12.7365 2.69287 14.2316C2.94868 13.8661 3.24195 13.5222 3.57176 13.2021C4.19095 12.6013 4.94428 12.0794 5.81085 11.651C6.58522 11.2681 7.38664 10.9917 8.13416 10.7923C8.55607 9.65006 9.47063 8.74469 10.6186 8.33487C9.47944 6.75664 7.84816 5.09602 5.3093 5.09602ZM3.16114 16.3789C2.37786 18.7896 3.54299 20.8876 3.59487 20.9785L3.82073 21.3737L5.46327 21.2128L5.81788 22.8247L6.26351 22.9173C6.36972 22.9394 8.90328 23.4314 11.0411 21.6903C10.7725 21.3341 10.536 20.9489 10.3336 20.5364C9.95348 19.7618 9.68993 18.8841 9.55026 17.9275C9.42545 17.0727 9.41022 16.2252 9.45151 15.4526C8.49561 14.6983 7.91715 13.5488 7.88209 12.3304C6.02912 12.926 3.94573 13.9643 3.16114 16.3789ZM13.228 21.9085C15.2786 23.3984 17.634 22.9386 17.7364 22.9173L18.1821 22.8247L18.5367 21.2128L20.1792 21.3737L20.4051 20.9785C20.4589 20.8843 21.7097 18.6268 20.7145 16.0556C20.2927 16.2009 19.8533 16.3068 19.3984 16.3719C18.5443 16.494 17.6281 16.4734 16.6751 16.3106C15.8236 16.1652 15.0128 15.9178 14.2908 15.6398C13.2781 16.3158 12.0061 16.5107 10.8364 16.1676C10.8304 18.1139 11.174 20.4162 13.228 21.9085ZM21.5978 14.0431C23.6484 12.5532 23.939 10.1711 23.9505 10.0671L24 9.61463L22.5767 8.77933L23.2372 7.26686L22.9311 6.92996C22.8582 6.84967 21.0977 4.96249 18.3448 5.11444C18.3527 5.56049 18.3176 6.01114 18.2389 6.46389C18.0911 7.31391 17.7884 8.17893 17.3391 9.03491C16.9377 9.79981 16.4518 10.4945 15.9643 11.0952C16.2943 12.2673 16.0866 13.5373 15.3987 14.5436C17.248 15.1508 19.5438 15.5354 21.5978 14.0431ZM16.7038 3.6524C15.9205 1.24177 13.7447 0.229255 13.6494 0.186229L13.2343 -0.000732422L12 1.09484L10.7657 -0.000732422L10.3507 0.186229C10.2518 0.230802 7.91298 1.32201 7.2068 3.98709C7.6335 4.11743 8.0512 4.29005 8.45746 4.50481C9.22021 4.90802 9.94936 5.46324 10.6246 6.15498C11.228 6.77314 11.7385 7.44993 12.1592 8.09921C13.3759 8.14753 14.5196 8.73752 15.2641 9.70265C16.4131 8.1316 17.4883 6.06705 16.7038 3.6524Z" fill="black"/>
<path d="M12.7152 14.8359C14.1607 14.4404 15.0119 12.9481 14.6165 11.5026C14.221 10.0572 12.7287 9.20596 11.2832 9.60139C9.83779 9.99682 8.98658 11.4892 9.38201 12.9346C9.77744 14.3801 11.2698 15.2313 12.7152 14.8359Z" fill="black"/>
</svg>
