<svg width="22" height="25" viewBox="0 0 22 25" fill="none" xmlns="http://www.w3.org/2000/svg">
<path d="M13.5283 10.7736H12.7863V14.5243H13.5283C13.8399 14.5243 14.0934 14.2707 14.0934 13.9591V11.3387C14.0934 11.0271 13.8399 10.7736 13.5283 10.7736ZM4.84136 8.20006C6.23116 6.30463 8.47338 5.07148 10.9985 5.07148C13.5237 5.07148 15.7659 6.30467 17.1557 8.20006L20.7803 6.11825L10.9985 0.5L1.2168 6.11825L4.84136 8.20006Z" fill="black"/>
<path d="M17.2198 12.7027C17.2198 9.2728 14.4294 6.48242 10.9996 6.48242C7.56972 6.48242 4.7793 9.2728 4.7793 12.7027C4.7793 16.1326 7.56972 18.923 10.9996 18.923C14.4295 18.923 17.2198 16.1325 17.2198 12.7027ZM10.5788 11.8284C10.579 12.1194 10.4955 12.4042 10.3383 12.649C10.4956 12.8938 10.579 13.1787 10.5788 13.4696V14.4092C10.5788 15.2506 9.8942 15.9352 9.05275 15.9352H7.27431V14.5243H9.05275C9.08328 14.5243 9.11256 14.5122 9.13415 14.4906C9.15574 14.469 9.16788 14.4397 9.16792 14.4092V13.4696C9.16788 13.4391 9.15574 13.4098 9.13415 13.3882C9.11256 13.3666 9.08328 13.3545 9.05275 13.3544H7.27431V11.9436H9.05275C9.08328 11.9436 9.11256 11.9314 9.13415 11.9098C9.15574 11.8882 9.16788 11.859 9.16792 11.8284V10.8889C9.16788 10.8583 9.15574 10.8291 9.13415 10.8075C9.11256 10.7859 9.08328 10.7737 9.05275 10.7737H7.27431V9.36284H9.05275C9.8942 9.36284 10.5788 10.0474 10.5788 10.8889V11.8284ZM13.5294 15.9352H11.3765V9.36284H13.5294C14.6189 9.36284 15.5053 10.2492 15.5053 11.3388V13.9592C15.5053 15.0488 14.6189 15.9352 13.5294 15.9352Z" fill="black"/>
<path d="M10.2936 20.3008C6.41533 19.9436 3.36794 16.6725 3.36794 12.7026C3.36794 11.5241 3.63658 10.4073 4.11559 9.40994L0.513672 7.34116V18.8828L10.2936 24.5V20.3008ZM17.8825 9.40989C18.3615 10.4073 18.6302 11.5241 18.6302 12.7025C18.6302 16.6725 15.5828 19.9435 11.7045 20.3007V24.5L21.4845 18.8828V7.34106L17.8825 9.40989Z" fill="black"/>
</svg>
