<svg width="24" height="19" viewBox="0 0 24 19" fill="none" xmlns="http://www.w3.org/2000/svg">
<path d="M13.293 6.64062H17.2698C16.9795 5.82223 16.198 5.23438 15.2814 5.23438C14.3647 5.23438 13.5832 5.82223 13.293 6.64062Z" fill="black"/>
<path d="M4.26562 12.5469C4.65395 12.5469 4.96875 12.2321 4.96875 11.8438C4.96875 11.4554 4.65395 11.1406 4.26562 11.1406C3.8773 11.1406 3.5625 11.4554 3.5625 11.8438C3.5625 12.2321 3.8773 12.5469 4.26562 12.5469Z" fill="black"/>
<path d="M9.89062 12.9688H14.1094V15.6406H9.89062V12.9688Z" fill="black"/>
<path d="M19.7344 12.5469C20.1227 12.5469 20.4375 12.2321 20.4375 11.8438C20.4375 11.4554 20.1227 11.1406 19.7344 11.1406C19.346 11.1406 19.0312 11.4554 19.0312 11.8438C19.0312 12.2321 19.346 12.5469 19.7344 12.5469Z" fill="black"/>
<path d="M2.85938 18.9219H6.14062C6.52894 18.9219 6.84375 18.6071 6.84375 18.2188V17.0469H2.15625V18.2188C2.15625 18.6071 2.47106 18.9219 2.85938 18.9219ZM17.8594 18.9219H21.1406C21.5289 18.9219 21.8438 18.6071 21.8438 18.2188V17.0469H17.1562V18.2188C17.1562 18.6071 17.4711 18.9219 17.8594 18.9219ZM20.9531 8.04688H3.04688C1.36683 8.04688 0 9.4137 0 11.0938V14.9375C0 15.3258 0.314812 15.6406 0.703125 15.6406H8.48438V12.2656C8.48438 11.8773 8.79919 11.5625 9.1875 11.5625H14.8125C15.2008 11.5625 15.5156 11.8773 15.5156 12.2656V15.6406H23.2969C23.6852 15.6406 24 15.3258 24 14.9375V11.0938C24 9.4137 22.6332 8.04688 20.9531 8.04688ZM4.26562 13.9531C3.10252 13.9531 2.15625 13.0069 2.15625 11.8438C2.15625 10.6806 3.10252 9.73438 4.26562 9.73438C5.42873 9.73438 6.375 10.6806 6.375 11.8438C6.375 13.0069 5.42873 13.9531 4.26562 13.9531ZM19.7344 13.9531C18.5713 13.9531 17.625 13.0069 17.625 11.8438C17.625 10.6806 18.5713 9.73438 19.7344 9.73438C20.8975 9.73438 21.8438 10.6806 21.8438 11.8438C21.8438 13.0069 20.8975 13.9531 19.7344 13.9531ZM0.703125 5.70312H1.28939L1.85189 6.64062H11.8364C12.163 5.03788 13.5835 3.82812 15.2812 3.82812C16.979 3.82812 18.3995 5.03788 18.7261 6.64062H22.1481L22.7106 5.70312H23.2969C23.6852 5.70312 24 5.38831 24 5C24 4.61169 23.6852 4.29688 23.2969 4.29688H22.3125C22.1911 4.29688 22.0717 4.32833 21.9661 4.38815C21.8604 4.44798 21.7721 4.53415 21.7096 4.63827L21.1371 5.59236L20.193 2.28795C19.8213 0.986844 18.6165 0.078125 17.2634 0.078125H6.73664C5.38345 0.078125 4.17877 0.986844 3.807 2.28795L2.86289 5.59236L2.29041 4.63827C2.22794 4.53415 2.13958 4.44798 2.03392 4.38815C1.92827 4.32833 1.80892 4.29688 1.6875 4.29688H0.703125C0.314812 4.29688 0 4.61169 0 5C0 5.38831 0.314812 5.70312 0.703125 5.70312Z" fill="black"/>
</svg>
