<svg width="24" height="25" viewBox="0 0 24 25" fill="none" xmlns="http://www.w3.org/2000/svg">
<path d="M17.5447 18.0915H24V20.3489H17.5447V18.0915ZM7.86159 14.3342H16.1384V20.3488H7.86159V14.3342ZM3.22767 0.5H20.7723V10.183H3.22767V0.5ZM0 18.0915H6.45534V20.3489H0V18.0915ZM22.3861 21.7551H16.6484L17.3177 23.0938H6.68231L7.35159 21.7551H1.61386V23.0938H0V24.5H24V23.0938H22.3861V21.7551ZM9.68302 11.5893V12.5C9.68302 12.6546 9.64402 12.8002 9.57577 12.9279H14.4242C14.3537 12.7963 14.3168 12.6493 14.3169 12.5V11.5893H9.68302ZM0 14.3342H6.45534V16.6853H0V14.3342ZM17.5447 14.3342H24V16.6853H17.5447V14.3342Z" fill="black"/>
</svg>
