<svg width="24" height="25" viewBox="0 0 24 25" fill="none" xmlns="http://www.w3.org/2000/svg">
<path d="M6.98122 9.99536H9.39017V11.7543H6.98122V9.99536ZM18.4268 9.99536H20.8357V11.7543H18.4268V9.99536ZM14.6116 9.99536H17.0205V11.7543H14.6116V9.99536ZM18.4268 16.3256H20.8357V18.0845H18.4268V16.3256ZM14.6116 16.3256H17.0205V18.0845H14.6116V16.3256ZM3.16602 16.3256H5.57497V18.0845H3.16602V16.3256ZM10.7964 9.99536H13.2054V11.7543H10.7964V9.99536ZM12.704 22.6559H15.113V24.5H12.704V22.6559ZM8.8888 22.6559H11.2977V24.5H8.8888V22.6559ZM6.98122 16.3256H9.39017V18.0845H6.98122V16.3256ZM10.7964 16.3256H13.2054V18.0845H10.7964V16.3256ZM3.16602 9.99536H5.57497V11.7543H3.16602V9.99536Z" fill="black"/>
<path d="M5.72062 5.66511V6.83023H0V24.5H7.48167V21.2497H16.5183V24.5H24V6.83028H18.2794V5.66516H19.8673V0.5H4.13273V5.66511H5.72062ZM5.81095 22.6559H1.67072V21.2497H5.81095V22.6559ZM1.75889 19.4908V14.9195H22.2411V19.4908H1.75889ZM22.3293 22.6559H18.189V21.2497H22.3293V22.6559ZM22.2411 13.1606H1.75889V8.58917H22.2411V13.1606ZM16.8731 6.83028H7.12687V5.66516H16.8731V6.83028Z" fill="black"/>
</svg>
