<svg width="24" height="20" viewBox="0 0 24 20" fill="none" xmlns="http://www.w3.org/2000/svg">
<path d="M8.79752 0.574598L8.78939 0.582731L0.387937 8.97317C0.321633 9.03985 0.262725 9.1135 0.212237 9.19283L0.0804497 9.43442L0.0255211 9.59916L0.0255211 9.71998C-0.00850704 9.90513 -0.00850704 10.0949 0.0255211 10.2801L0.0255211 10.5217L0.124362 10.7084C0.180884 10.8124 0.251054 10.9085 0.333008 10.9939L8.78939 19.4173C9.34897 19.9814 10.2599 19.985 10.824 19.4255L10.8321 19.4173C11.3746 18.8487 11.3746 17.9542 10.8321 17.3856L5.82417 12.3667C5.61187 12.1502 5.61527 11.8025 5.83184 11.5902C5.93258 11.4914 6.06749 11.4352 6.20857 11.4332L22.5612 11.4332C23.3558 11.4333 23.9999 10.7892 24 9.99463C24 9.20004 23.356 8.55593 22.5614 8.55582L6.20857 8.55582C5.90535 8.55155 5.66294 8.30229 5.66721 7.99907C5.66922 7.85802 5.72538 7.72309 5.82417 7.62235L10.8321 2.62539C11.3816 2.05536 11.3816 1.15271 10.8321 0.58268C10.2725 0.0186195 9.36158 0.0149651 8.79752 0.574598Z" fill="black"/>
</svg>
