<svg width="25" height="24" viewBox="0 0 25 24" fill="none" xmlns="http://www.w3.org/2000/svg">
<path d="M12.7028 0C6.07559 0 0.703125 5.37287 0.703125 11.9998C0.703125 18.6267 6.07559 24 12.7028 24C19.3301 24 24.7028 18.6269 24.7028 11.9998C24.7028 5.37271 19.3301 0 12.7028 0ZM9.42338 16.6153H16.8772C17.8461 16.6153 18.6343 17.4038 18.6343 18.3727C18.6343 19.3417 17.8461 20.1301 16.8772 20.1301C15.908 20.1301 15.1195 19.3417 15.1195 18.3727C15.1195 18.1945 15.1467 18.0225 15.1961 17.8603H10.1462C10.1958 18.0225 10.223 18.1943 10.223 18.3727C10.223 19.3417 9.43482 20.1301 8.46564 20.1301C7.49645 20.1301 6.70822 19.3417 6.70822 18.3727C6.70822 17.5071 7.33797 16.7873 8.16316 16.6433L7.85421 14.9418L7.85085 14.9256L6.21215 6.81613L4.70666 6.82605L4.69834 5.58111L7.2295 5.56431L7.84197 8.5949L19.189 9.95535L17.7476 15.448H9.2113L9.42338 16.6153Z" fill="black"/>
</svg>
