<svg width="24" height="24" viewBox="0 0 24 24" fill="none" xmlns="http://www.w3.org/2000/svg">
<path d="M11.9996 0C5.37247 0 0 5.37287 0 11.9998C0 18.6267 5.37247 24 11.9996 24C18.627 24 23.9997 18.6269 23.9997 11.9998C23.9997 5.37271 18.627 0 11.9996 0ZM8.72025 16.6153H16.174C17.143 16.6153 17.9312 17.4038 17.9312 18.3727C17.9312 19.3417 17.143 20.1301 16.174 20.1301C15.2049 20.1301 14.4164 19.3417 14.4164 18.3727C14.4164 18.1945 14.4436 18.0225 14.493 17.8603H9.44312C9.49272 18.0225 9.51992 18.1943 9.51992 18.3727C9.51992 19.3417 8.73169 20.1301 7.76251 20.1301C6.79333 20.1301 6.0051 19.3417 6.0051 18.3727C6.0051 17.5071 6.63485 16.7873 7.46004 16.6433L7.15108 14.9418L7.14772 14.9256L5.50903 6.81613L4.00353 6.82605L3.99521 5.58111L6.52637 5.56431L7.13884 8.5949L18.4859 9.95535L17.0444 15.448H8.50818L8.72025 16.6153Z" fill="white"/>
</svg>
