<svg width="24" height="25" viewBox="0 0 24 25" fill="none" xmlns="http://www.w3.org/2000/svg">
<path d="M14.5 19.0918H16V17.5918H14.5V19.0918ZM17.25 19.0918H18.75V17.5918H17.25V19.0918ZM20 19.0918H21.5V17.5918H20V19.0918ZM18 23.3418C16.6167 23.3418 15.4377 22.8545 14.463 21.8798C13.4877 20.9045 13 19.7251 13 18.3418C13 16.9585 13.4877 15.7791 14.463 14.8038C15.4377 13.8291 16.6167 13.3418 18 13.3418C19.3833 13.3418 20.5627 13.8291 21.538 14.8038C22.5127 15.7791 23 16.9585 23 18.3418C23 19.7251 22.5127 20.9045 21.538 21.8798C20.5627 22.8545 19.3833 23.3418 18 23.3418ZM7 9.3418H17V7.3418H7V9.3418ZM11.675 21.3418H3V3.3418H21V12.0418C20.5167 11.8085 20.0293 11.6335 19.538 11.5168C19.046 11.4001 18.5333 11.3418 18 11.3418C17.8167 11.3418 17.646 11.3458 17.488 11.3538C17.3293 11.3625 17.1667 11.3835 17 11.4168V11.3418H7V13.3418H13.125C12.825 13.6251 12.554 13.9335 12.312 14.2668C12.0707 14.6001 11.8583 14.9585 11.675 15.3418H7V17.3418H11.075C11.0417 17.5085 11.0207 17.6711 11.012 17.8298C11.004 17.9878 11 18.1585 11 18.3418C11 18.8918 11.05 19.4045 11.15 19.8798C11.25 20.3545 11.425 20.8418 11.675 21.3418Z" fill="black"/>
</svg>
