<svg width="25" height="8" viewBox="0 0 25 8" fill="none" xmlns="http://www.w3.org/2000/svg">
<path d="M10.1134 0.429688L8.89372 7.58744H10.8445L12.0652 0.429688H10.1134ZM7.25806 0.437716L5.34746 5.3191L5.14375 4.58205C4.76695 3.69398 3.69725 2.41857 2.44141 1.61479L4.18845 7.58393L6.25259 7.58042L9.32471 0.43621L7.25806 0.437716Z" fill="black"/>
<path d="M4.40339 0.949865C4.29 0.513857 3.96136 0.383907 3.55345 0.368354H0.528993L0.503906 0.510847C2.85755 1.08182 4.41493 2.45758 5.06117 4.1118L4.40339 0.949865ZM16.0191 1.80181C16.5195 1.79067 17.0168 1.88397 17.4791 2.07576L17.6552 2.15855L17.9191 0.607179C17.5328 0.462178 16.9272 0.306641 16.1716 0.306641C14.2439 0.306641 12.8852 1.2775 12.8747 2.66881C12.8621 3.69686 13.8425 4.27085 14.5831 4.61353C15.3432 4.96475 15.5981 5.18802 15.5946 5.50161C15.5886 5.98076 14.9885 6.20052 14.4281 6.20052C13.6469 6.20052 13.2319 6.09265 12.5912 5.82573L12.3398 5.71133L12.0654 7.31337C12.522 7.51356 13.3644 7.68566 14.2389 7.69469C16.2895 7.69469 17.6221 6.73537 17.6362 5.24873C17.6447 4.43542 17.1244 3.81477 15.997 3.30551C15.3146 2.97336 14.8972 2.7526 14.9012 2.41744C14.9012 2.11991 15.2554 1.80181 16.0191 1.80181ZM22.9254 0.437593H21.4182C20.9501 0.437593 20.6019 0.565034 20.3962 1.03165L17.4997 7.59133H19.5483C19.5483 7.59133 19.8824 6.70928 19.9582 6.51611L22.4563 6.51913C22.5145 6.76899 22.6941 7.59133 22.6941 7.59133H24.5039L22.9254 0.437593ZM20.5196 5.05105C20.6802 4.64013 21.2968 3.05063 21.2968 3.05063C21.2863 3.0702 21.4559 2.6367 21.5567 2.36727L21.6882 2.9844L22.1402 5.05105H20.5196Z" fill="black"/>
</svg>
