<svg width="32" height="39" viewBox="0 0 32 39" fill="none" xmlns="http://www.w3.org/2000/svg">
<path d="M31.6655 3.29473L28.2308 5.54469C26.0653 4.59176 23.6696 4.0623 21.1515 4.0623C11.4369 4.0623 3.56173 11.9374 3.56173 21.6521C3.56173 27.1469 6.08152 32.0527 10.0287 35.2783L8.78896 38.8162C3.46536 34.975 0 28.7189 0 21.6521C0 9.97035 9.47035 0.5 21.1521 0.5C24.9797 0.5 28.5692 1.51699 31.6667 3.29473H31.6655Z" fill="url(#paint0_linear_1220_48757)"/>
<path d="M26.9279 30.4381L29.5945 32.8916C27.2436 34.6597 24.3196 35.709 21.1508 35.709C13.3873 35.709 7.09375 29.4154 7.09375 21.652C7.09375 13.8885 13.3873 7.59497 21.1508 7.59497V11.1369C15.3436 11.1369 10.6356 15.8448 10.6356 21.652C10.6356 27.4591 15.3436 32.1665 21.1508 32.1665C23.2839 32.1665 25.2697 31.5316 26.9273 30.4381H26.9279Z" fill="#D4E5F0"/>
<path d="M28.1385 21.6518C28.1385 23.3008 27.5682 24.8167 26.6119 26.0117L23.8982 23.8371C24.3671 23.2345 24.646 22.476 24.646 21.6518C24.646 19.6819 23.0496 18.0855 21.0808 18.0855C19.9748 18.0855 18.9868 18.5883 18.3326 19.378L15.7051 17.2709C16.9851 15.6797 18.9494 14.6621 21.15 14.6621C25.0099 14.6621 28.1385 17.7919 28.1385 21.6512V21.6518Z" fill="#515151"/>
<path d="M23.8999 23.8371L26.6135 26.0117C25.3335 27.6137 23.3625 28.6403 21.1516 28.6403C17.2917 28.6403 14.1631 25.5117 14.1631 21.6518C14.1631 19.9931 14.7407 18.4693 15.7061 17.2715L18.3336 19.3786C17.8229 19.9954 17.5156 20.7879 17.5156 21.6518C17.5156 23.6206 19.112 25.2169 21.0819 25.2169C22.227 25.2169 23.2468 24.6767 23.8993 23.8371H23.8999Z" fill="#9AB1BB"/>
<defs>
<linearGradient id="paint0_linear_1220_48757" x1="15.4679" y1="38.8162" x2="20.7639" y2="-7.19224" gradientUnits="userSpaceOnUse">
<stop stop-color="#EB1010"/>
<stop offset="1" stop-color="#D74E4E"/>
</linearGradient>
</defs>
</svg>
