<svg width="25" height="24" viewBox="0 0 25 24" fill="none" xmlns="http://www.w3.org/2000/svg">
<g clip-path="url(#clip0_865_68788)">
<path d="M4.86763 21.9062V20.6487C4.86763 20.1665 4.57944 19.8522 4.08547 19.8522C3.83853 19.8522 3.57097 19.936 3.38572 20.2085C3.24172 19.978 3.03594 19.8522 2.72722 19.8522C2.52134 19.8522 2.31566 19.915 2.15094 20.1456V19.8941H1.71875V21.9062H2.15094V20.7953C2.15094 20.4391 2.33619 20.2714 2.62438 20.2714C2.91238 20.2714 3.05656 20.46 3.05656 20.7953V21.9062H3.48875V20.7953C3.48875 20.4391 3.69444 20.2714 3.962 20.2714C4.25019 20.2714 4.39419 20.46 4.39419 20.7953V21.9062H4.86763ZM11.268 19.8941H10.5684V19.2863H10.1362V19.8941H9.74516V20.2923H10.1361V21.2146C10.1361 21.6757 10.3213 21.9481 10.8153 21.9481C11.0006 21.9481 11.2063 21.8853 11.3504 21.8015L11.2269 21.4242C11.1034 21.508 10.9594 21.529 10.8565 21.529C10.6507 21.529 10.5684 21.4032 10.5684 21.1936V20.2923H11.268V19.8941ZM14.9314 19.8521C14.6845 19.8521 14.5198 19.978 14.4169 20.1456V19.8941H13.9847V21.9062H14.4169V20.7744C14.4169 20.4391 14.5609 20.2505 14.8285 20.2505C14.9108 20.2505 15.0137 20.2715 15.096 20.2924L15.2195 19.8732C15.1372 19.8522 15.0137 19.8522 14.9314 19.8522V19.8521ZM9.39528 20.0618C9.18941 19.915 8.90131 19.8522 8.59259 19.8522C8.09872 19.8522 7.76947 20.1037 7.76947 20.5019C7.76947 20.8373 8.01641 21.0259 8.44859 21.0888L8.65438 21.1098C8.88078 21.1517 9.00425 21.2146 9.00425 21.3194C9.00425 21.4661 8.83963 21.5709 8.55144 21.5709C8.26334 21.5709 8.03694 21.4661 7.89284 21.3613L7.68706 21.6966C7.91347 21.8643 8.22219 21.9481 8.53081 21.9481C9.10709 21.9481 9.43644 21.6757 9.43644 21.2984C9.43644 20.9421 9.16888 20.7534 8.75722 20.6906L8.55144 20.6696C8.36619 20.6486 8.22219 20.6068 8.22219 20.481C8.22219 20.3343 8.36619 20.2505 8.59259 20.2505C8.83963 20.2505 9.08656 20.3552 9.21003 20.4181L9.39528 20.0618ZM20.8792 19.8522C20.6322 19.8522 20.4675 19.978 20.3646 20.1456V19.8941H19.9324V21.9062H20.3646V20.7744C20.3646 20.4391 20.5087 20.2505 20.7762 20.2505C20.8586 20.2505 20.9615 20.2715 21.0438 20.2924L21.1673 19.8732C21.085 19.8522 20.9615 19.8522 20.8792 19.8522ZM15.3636 20.9002C15.3636 21.508 15.7752 21.9481 16.4132 21.9481C16.7013 21.9481 16.9071 21.8853 17.1129 21.7177L16.9071 21.3613C16.7425 21.4871 16.5778 21.5499 16.3926 21.5499C16.0427 21.5499 15.7958 21.2984 15.7958 20.9002C15.7958 20.5229 16.0427 20.2714 16.3926 20.2505C16.5778 20.2505 16.7425 20.3133 16.9071 20.4391L17.1129 20.0828C16.9071 19.915 16.7013 19.8522 16.4132 19.8522C15.7752 19.8522 15.3636 20.2924 15.3636 20.9002ZM19.3562 20.9002V19.8941H18.924V20.1456C18.7799 19.957 18.5742 19.8522 18.3066 19.8522C17.7509 19.8522 17.3188 20.2924 17.3188 20.9002C17.3188 21.508 17.7509 21.9481 18.3066 21.9481C18.5947 21.9481 18.8006 21.8434 18.924 21.6547V21.9062H19.3562V20.9002ZM17.7715 20.9002C17.7715 20.5439 17.9979 20.2505 18.3683 20.2505C18.7182 20.2505 18.9652 20.5229 18.9652 20.9002C18.9652 21.2565 18.7182 21.5499 18.3683 21.5499C17.9979 21.5289 17.7715 21.2565 17.7715 20.9002ZM12.6058 19.8522C12.0296 19.8522 11.6179 20.2714 11.6179 20.9002C11.6179 21.529 12.0295 21.9481 12.6264 21.9481C12.9145 21.9481 13.2027 21.8643 13.4291 21.6757L13.2232 21.3613C13.0586 21.4871 12.8528 21.5709 12.647 21.5709C12.3794 21.5709 12.1119 21.4452 12.0501 21.0887H13.5114V20.9212C13.532 20.2714 13.1616 19.8522 12.6058 19.8522ZM12.6058 20.2294C12.8733 20.2294 13.0587 20.3972 13.0997 20.7116H12.0707C12.1119 20.4391 12.2971 20.2294 12.6058 20.2294ZM23.3282 20.9002V19.0977H22.896V20.1456C22.7519 19.957 22.5462 19.8522 22.2786 19.8522C21.7229 19.8522 21.2908 20.2924 21.2908 20.9002C21.2908 21.508 21.7229 21.9481 22.2786 21.9481C22.5668 21.9481 22.7726 21.8434 22.896 21.6547V21.9062H23.3282V20.9002ZM21.7436 20.9002C21.7436 20.5439 21.9699 20.2505 22.3404 20.2505C22.6903 20.2505 22.9372 20.5229 22.9372 20.9002C22.9372 21.2565 22.6903 21.5499 22.3404 21.5499C21.9699 21.5289 21.7436 21.2565 21.7436 20.9002ZM7.29603 20.9002V19.8941H6.86384V20.1456C6.71975 19.957 6.51397 19.8522 6.24641 19.8522C5.69075 19.8522 5.25856 20.2924 5.25856 20.9002C5.25856 21.508 5.69075 21.9481 6.24641 21.9481C6.53459 21.9481 6.74038 21.8434 6.86384 21.6547V21.9062H7.29603V20.9002ZM5.69075 20.9002C5.69075 20.5439 5.91716 20.2505 6.28756 20.2505C6.63744 20.2505 6.88447 20.5229 6.88447 20.9002C6.88447 21.2565 6.63744 21.5499 6.28756 21.5499C5.91716 21.5289 5.69075 21.2565 5.69075 20.9002Z" fill="black"/>
<path d="M9.25 4.61328H15.7328V16.4764H9.25V4.61328Z" fill="#FF5F00"/>
<path d="M9.66225 10.5455C9.66225 8.13516 10.7736 5.99723 12.4817 4.61385C11.2264 3.60781 9.64172 3 7.91297 3C3.81731 3 0.503906 6.37446 0.503906 10.5455C0.503906 14.7164 3.81731 18.091 7.91288 18.091C9.64163 18.091 11.2263 17.4832 12.4817 16.477C10.7736 15.1146 9.66225 12.9558 9.66225 10.5455Z" fill="#EB001B"/>
<path d="M24.4778 10.5455C24.4778 14.7164 21.1644 18.091 17.0688 18.091C15.3401 18.091 13.7554 17.4832 12.5 16.477C14.2288 15.0937 15.3195 12.9558 15.3195 10.5455C15.3195 8.13516 14.2081 5.99723 12.5 4.61385C13.7553 3.60781 15.3401 3 17.0688 3C21.1644 3 24.4778 6.39546 24.4778 10.5455Z" fill="#F79E1B"/>
</g>
<defs>
<clipPath id="clip0_865_68788">
<rect width="24" height="24" fill="white" transform="translate(0.503906)"/>
</clipPath>
</defs>
</svg>
