<svg width="40" height="40" viewBox="0 0 40 40" fill="none" xmlns="http://www.w3.org/2000/svg">
<path d="M13.3334 17.8854V27.7988C13.3337 27.8523 13.3552 27.9035 13.3932 27.9412C13.4312 27.9789 13.4825 28.0001 13.536 28.0001H26.4694C26.522 27.9987 26.572 27.9769 26.6088 27.9394C26.6456 27.9018 26.6664 27.8514 26.6667 27.7988V17.8854L20 11.2188L13.3334 17.8854Z" fill="url(#paint0_linear_1219_1944)"/>
<path d="M20 0C16.0444 0 12.1776 1.17298 8.88861 3.37061C5.59962 5.56824 3.03617 8.69181 1.52242 12.3463C0.00866588 16.0009 -0.387401 20.0222 0.384303 23.9018C1.15601 27.7814 3.06082 31.3451 5.85787 34.1421C8.65492 36.9392 12.2186 38.844 16.0982 39.6157C19.9778 40.3874 23.9992 39.9913 27.6537 38.4776C31.3082 36.9638 34.4318 34.4004 36.6294 31.1114C38.827 27.8224 40 23.9556 40 20C39.994 14.6975 37.8849 9.61392 34.1355 5.86449C30.3861 2.11506 25.3025 0.00599929 20 0ZM30.9427 20.276C30.7381 20.4898 30.4652 20.6253 30.1713 20.6589C29.8773 20.6925 29.5809 20.6221 29.3333 20.46V27.7933C29.3337 28.5548 29.0316 29.2852 28.4936 29.8241C27.9555 30.3629 27.2255 30.666 26.464 30.6667H13.5307C12.7711 30.6646 12.0432 30.3616 11.5064 29.8241C10.9697 29.2866 10.6677 28.5583 10.6667 27.7987V20.4653C10.4164 20.6187 10.122 20.684 9.83031 20.6506C9.53865 20.6173 9.26654 20.4873 9.05734 20.2813C8.80738 20.0313 8.66696 19.6922 8.66696 19.3387C8.66696 18.9851 8.80738 18.646 9.05734 18.396L11.0573 16.396L19.0573 8.396C19.3074 8.14604 19.6465 8.00562 20 8.00562C20.3536 8.00562 20.6926 8.14604 20.9427 8.396L28.9427 16.396L30.9427 18.396C31.191 18.6458 31.3304 18.9838 31.3304 19.336C31.3304 19.6882 31.191 20.0262 30.9427 20.276Z" fill="url(#paint1_linear_1219_1944)"/>
<defs>
<linearGradient id="paint0_linear_1219_1944" x1="19.8462" y1="28.0001" x2="22.2563" y2="7.87136" gradientUnits="userSpaceOnUse">
<stop stop-color="#EB1010"/>
<stop offset="1" stop-color="#D74E4E"/>
</linearGradient>
<linearGradient id="paint1_linear_1219_1944" x1="19.5385" y1="40" x2="24.1267" y2="-8.23018" gradientUnits="userSpaceOnUse">
<stop stop-color="#EB1010"/>
<stop offset="1" stop-color="#D74E4E"/>
</linearGradient>
</defs>
</svg>
