<svg width="40" height="40" viewBox="0 0 40 40" fill="none" xmlns="http://www.w3.org/2000/svg">
<path d="M22.9212 22.9344C21.8575 23.9981 20.4462 24.5831 18.9412 24.5831C17.4362 24.5831 16.025 23.9981 14.9612 22.9344C13.8975 21.8719 13.3137 20.4594 13.3137 18.9556C13.3137 17.4519 13.8987 16.0394 14.9612 14.9756C16.025 13.9119 17.4362 13.3269 18.9412 13.3269C20.4462 13.3269 21.8575 13.9119 22.9212 14.9756C23.985 16.0381 24.5687 17.4519 24.5687 18.9556C24.5687 20.4594 23.985 21.8719 22.9212 22.9344ZM39.9225 20.0781C39.9225 31.1056 30.95 40.0781 19.9225 40.0781C8.89499 40.0781 -0.0775146 31.1056 -0.0775146 20.0781C-0.0775146 9.05063 8.89499 0.078125 19.9225 0.078125C30.95 0.078125 39.9225 9.04938 39.9225 20.0781ZM28.8212 27.0381L25.5137 23.7219C26.5261 22.3386 27.0709 20.6685 27.0687 18.9544C27.0687 16.7831 26.2237 14.7419 24.6887 13.2069C23.1537 11.6719 21.1137 10.8256 18.9412 10.8256C16.7687 10.8256 14.7287 11.6719 13.1937 13.2069C11.6587 14.7419 10.8137 16.7831 10.8137 18.9544C10.8137 21.1256 11.66 23.1669 13.1937 24.7006C13.9467 25.4579 14.8423 26.0583 15.8289 26.4671C16.8155 26.8758 17.8733 27.0848 18.9412 27.0819C20.6739 27.0834 22.361 26.5268 23.7525 25.4944L27.0512 28.8019C27.1671 28.9186 27.305 29.0112 27.4569 29.0743C27.6088 29.1374 27.7717 29.1697 27.9362 29.1694C28.183 29.1691 28.4242 29.0957 28.6294 28.9586C28.8345 28.8215 28.9945 28.6267 29.0892 28.3988C29.1838 28.1708 29.2089 27.92 29.1612 27.6779C29.1135 27.4357 28.9952 27.2131 28.8212 27.0381Z" fill="url(#paint0_linear_1219_1999)"/>
<defs>
<linearGradient id="paint0_linear_1219_1999" x1="19.4609" y1="40.0781" x2="24.0492" y2="-8.15206" gradientUnits="userSpaceOnUse">
<stop stop-color="#EB1010"/>
<stop offset="1" stop-color="#D74E4E"/>
</linearGradient>
</defs>
</svg>
