<svg width="40" height="40" viewBox="0 0 40 40" fill="none" xmlns="http://www.w3.org/2000/svg">
<path d="M19.9998 0C8.95448 0 0.000366211 8.95478 0.000366211 19.9997C0.000366211 31.0445 8.95448 40 19.9998 40C31.0453 40 39.9998 31.0448 39.9998 19.9997C39.9998 8.95452 31.0453 0 19.9998 0ZM14.5341 27.6922H26.9571C28.572 27.6922 29.8857 29.0063 29.8857 30.6212C29.8857 32.2361 28.572 33.5502 26.9571 33.5502C25.3418 33.5502 24.0277 32.2361 24.0277 30.6212C24.0277 30.3242 24.073 30.0375 24.1553 29.7671H15.7389C15.8216 30.0375 15.8669 30.3239 15.8669 30.6212C15.8669 32.2361 14.5532 33.5502 12.9379 33.5502C11.3226 33.5502 10.0089 32.2361 10.0089 30.6212C10.0089 29.1784 11.0584 27.9789 12.4338 27.7389L11.9188 24.9029L11.9132 24.876L9.18208 11.3602L6.67292 11.3767L6.65906 9.30184L10.8777 9.27385L11.8984 14.3248L30.8101 16.5923L28.4078 25.7466H14.1807L14.5341 27.6922Z" fill="black"/>
</svg>
