<svg width="56" height="40" viewBox="0 0 56 40" fill="none" xmlns="http://www.w3.org/2000/svg">
<g clip-path="url(#clip0_1335_59044)">
<rect width="56" height="40" rx="20" fill="url(#paint0_linear_1335_59044)"/>
<g filter="url(#filter0_d_1335_59044)">
<path d="M22.9988 22.8563C21.935 23.92 20.5238 24.505 19.0187 24.505C17.5137 24.505 16.1025 23.92 15.0388 22.8563C13.975 21.7938 13.3913 20.3813 13.3913 18.8775C13.3913 17.3738 13.9763 15.9613 15.0388 14.8975C16.1025 13.8337 17.5137 13.2487 19.0187 13.2487C20.5238 13.2487 21.935 13.8337 22.9988 14.8975C24.0625 15.96 24.6463 17.3738 24.6463 18.8775C24.6463 20.3813 24.0625 21.7938 22.9988 22.8563ZM40 20C40 31.0275 31.0275 40 20 40C8.9725 40 0 31.0275 0 20C0 8.9725 8.9725 0 20 0C31.0275 0 40 8.97125 40 20ZM28.8988 26.96L25.5913 23.6438C26.6037 22.2605 27.1484 20.5904 27.1463 18.8762C27.1463 16.705 26.3013 14.6637 24.7663 13.1287C23.2313 11.5938 21.1912 10.7475 19.0187 10.7475C16.8462 10.7475 14.8063 11.5938 13.2713 13.1287C11.7363 14.6637 10.8913 16.705 10.8913 18.8762C10.8913 21.0475 11.7375 23.0887 13.2713 24.6225C14.0242 25.3798 14.9199 25.9802 15.9064 26.3889C16.893 26.7977 17.9509 27.0067 19.0187 27.0038C20.7514 27.0053 22.4385 26.4487 23.83 25.4163L27.1288 28.7238C27.2446 28.8405 27.3825 28.9331 27.5344 28.9962C27.6863 29.0592 27.8493 29.0916 28.0138 29.0913C28.2605 29.091 28.5017 29.0176 28.7069 28.8805C28.912 28.7433 29.072 28.5485 29.1667 28.3206C29.2613 28.0927 29.2864 27.8419 29.2387 27.5998C29.191 27.3576 29.0727 27.135 28.8988 26.96Z" fill="white"/>
</g>
</g>
<defs>
<filter id="filter0_d_1335_59044" x="-4" y="0" width="48" height="48" filterUnits="userSpaceOnUse" color-interpolation-filters="sRGB">
<feFlood flood-opacity="0" result="BackgroundImageFix"/>
<feColorMatrix in="SourceAlpha" type="matrix" values="0 0 0 0 0 0 0 0 0 0 0 0 0 0 0 0 0 0 127 0" result="hardAlpha"/>
<feOffset dy="4"/>
<feGaussianBlur stdDeviation="2"/>
<feComposite in2="hardAlpha" operator="out"/>
<feColorMatrix type="matrix" values="0 0 0 0 0 0 0 0 0 0 0 0 0 0 0 0 0 0 0.25 0"/>
<feBlend mode="normal" in2="BackgroundImageFix" result="effect1_dropShadow_1335_59044"/>
<feBlend mode="normal" in="SourceGraphic" in2="effect1_dropShadow_1335_59044" result="shape"/>
</filter>
<linearGradient id="paint0_linear_1335_59044" x1="27.3538" y1="40" x2="30.6456" y2="-8.44299" gradientUnits="userSpaceOnUse">
<stop stop-color="#EB1010"/>
<stop offset="1" stop-color="#D74E4E"/>
</linearGradient>
<clipPath id="clip0_1335_59044">
<rect width="56" height="40" rx="20" fill="white"/>
</clipPath>
</defs>
</svg>
