<svg width="24" height="24" viewBox="0 0 24 24" fill="none" xmlns="http://www.w3.org/2000/svg">
<g clip-path="url(#clip0_499_964)">
<path d="M17.6645 8.39255C17.5595 7.98346 17.2554 7.5171 16.8736 7.11755C16.4045 6.62664 15.8045 6.2271 15.2795 6.10982C13.1124 5.69516 10.8862 5.69516 8.71906 6.10982C7.76452 6.32255 6.56861 7.47346 6.33543 8.39255C5.94564 10.1664 5.94564 12.0037 6.33543 13.7776C6.52361 14.5221 7.34043 15.4139 8.14906 15.8421C8.32827 15.9407 8.52002 16.0146 8.71906 16.0616C8.73966 16.0652 8.75834 16.0759 8.77181 16.0918C8.78528 16.1078 8.79268 16.128 8.7927 16.1489V18.7671C8.79266 18.796 8.80131 18.8243 8.81753 18.8483C8.83376 18.8723 8.8568 18.8908 8.88369 18.9016C8.91058 18.9123 8.94006 18.9147 8.96833 18.9085C8.9966 18.9022 9.02235 18.8877 9.04225 18.8666L10.2872 17.5916L11.4545 16.3916C11.4628 16.3826 11.4729 16.3755 11.4842 16.3708C11.4956 16.3661 11.5077 16.3639 11.52 16.3644C12.7799 16.3983 14.0399 16.2968 15.2782 16.0616C16.2327 15.8489 17.4286 14.698 17.6632 13.7776C18.0534 12.0038 18.0539 10.1665 17.6645 8.39255ZM15.3136 13.9098C15.1366 14.3142 14.832 14.6495 14.4463 14.8644C14.3256 14.9168 14.2 14.957 14.0713 14.9844C13.9254 14.9394 13.7863 14.9107 13.6622 14.8562C12.6306 14.4534 11.6705 13.8871 10.8191 13.1789C10.5661 12.9618 10.3278 12.7281 10.1059 12.4794C9.55934 11.8501 9.10062 11.1496 8.74225 10.3971C8.5677 10.0426 8.42043 9.67301 8.27043 9.30619C8.13407 8.9721 8.33588 8.62437 8.54316 8.37619C8.74556 8.14423 8.99524 7.95826 9.27543 7.83073C9.37378 7.7807 9.48663 7.76695 9.59412 7.79189C9.70162 7.81683 9.79688 7.87887 9.86316 7.9671C10.2089 8.3591 10.5136 8.78541 10.7727 9.23937C10.8545 9.37161 10.8825 9.53023 10.8508 9.68248C10.8191 9.83473 10.7301 9.969 10.6022 10.0576C10.5341 10.1039 10.4659 10.1598 10.4072 10.2116C10.3494 10.2549 10.2996 10.308 10.26 10.3685C10.2256 10.4248 10.2047 10.4884 10.199 10.5542C10.1934 10.6199 10.203 10.6861 10.2272 10.7476C10.4904 11.4716 10.89 12.0744 11.4872 12.4985C11.6893 12.6418 11.9071 12.7617 12.1363 12.8557C12.2859 12.9373 12.4542 12.9782 12.6245 12.9744C12.9218 12.9389 13.02 12.6116 13.2272 12.4412C13.3225 12.3635 13.4404 12.3186 13.5632 12.3132C13.686 12.3078 13.8073 12.3422 13.9091 12.4112C14.13 12.5476 14.3427 12.7003 14.5554 12.8516C14.7658 12.9948 14.9684 13.1491 15.1622 13.3139C15.2528 13.3802 15.3174 13.4759 15.3451 13.5847C15.3727 13.6934 15.3616 13.8084 15.3136 13.9098ZM13.3554 10.6371C13.3471 10.6147 13.3416 10.5913 13.3391 10.5676C13.332 10.4758 13.3183 10.3846 13.2982 10.2948C13.258 10.1124 13.1547 9.95013 13.0063 9.83664C12.9345 9.78582 12.8548 9.74712 12.7704 9.7221C12.6627 9.6921 12.5495 9.70028 12.4432 9.67437C12.3906 9.66505 12.3438 9.63528 12.3132 9.59158C12.2825 9.54787 12.2704 9.4938 12.2795 9.44119C12.2894 9.39054 12.3174 9.34525 12.3584 9.31386C12.3993 9.28246 12.4503 9.26712 12.5018 9.27073C13.1263 9.3171 13.5927 9.6171 13.7127 10.2866C13.7251 10.3488 13.7338 10.4116 13.7386 10.4748C13.7475 10.5313 13.7475 10.5888 13.7386 10.6453C13.7311 10.6799 13.7132 10.7115 13.6874 10.7358C13.6616 10.7602 13.6291 10.7761 13.5941 10.7816H13.5641C13.5181 10.7846 13.4725 10.7719 13.4346 10.7456C13.3968 10.7194 13.3688 10.6812 13.3554 10.6371ZM13.1563 8.94755C12.9462 8.84882 12.723 8.78041 12.4936 8.74437C12.3927 8.72801 12.2918 8.71846 12.1909 8.70483C12.1645 8.70352 12.1386 8.69679 12.115 8.68506C12.0913 8.67332 12.0703 8.65682 12.0533 8.63661C12.0362 8.61639 12.0236 8.59288 12.0161 8.56755C12.0085 8.54221 12.0063 8.5156 12.0095 8.48937C12.0097 8.46276 12.0155 8.43649 12.0266 8.41228C12.0376 8.38806 12.0536 8.36644 12.0735 8.34882C12.0935 8.33119 12.1169 8.31797 12.1423 8.31C12.1677 8.30202 12.1945 8.29949 12.2209 8.30255C12.6213 8.318 13.0135 8.42037 13.3704 8.60255C13.806 8.8215 14.1615 9.17222 14.3863 9.60483C14.5128 9.85819 14.5976 10.1303 14.6372 10.4107C14.6447 10.4472 14.6502 10.4841 14.6536 10.5212C14.6604 10.603 14.6632 10.6835 14.67 10.7857V10.8239C14.669 10.8644 14.6635 10.9046 14.6536 10.9439C14.6415 10.9833 14.6176 11.018 14.5852 11.0433C14.5527 11.0686 14.5132 11.0833 14.4721 11.0853C14.431 11.0874 14.3902 11.0768 14.3554 11.0549C14.3205 11.033 14.2932 11.0009 14.2772 10.963C14.2621 10.908 14.2552 10.851 14.2568 10.7939C14.2598 10.4894 14.1995 10.1875 14.0795 9.90755C14.0523 9.84594 14.0218 9.78585 13.9882 9.72755C13.7926 9.39221 13.5035 9.12115 13.1563 8.94755ZM15.4091 11.4621C15.2727 11.4621 15.2059 11.3462 15.1963 11.2194C15.1786 10.9698 15.165 10.7189 15.1309 10.4707C15.0717 10.0516 14.9259 9.64944 14.7027 9.28983C14.4731 8.9158 14.1675 8.59413 13.8058 8.34561C13.4441 8.0971 13.0342 7.92726 12.6027 7.8471C12.4063 7.81301 12.2059 7.80483 12.0082 7.78301C11.8827 7.77073 11.7177 7.76255 11.6904 7.60573C11.6868 7.57568 11.6895 7.5452 11.6984 7.51628C11.7074 7.48736 11.7223 7.46064 11.7422 7.43787C11.7622 7.4151 11.7867 7.39678 11.8142 7.38412C11.8417 7.37145 11.8715 7.36473 11.9018 7.36437H12.0477C12.6357 7.3767 13.2119 7.53216 13.7263 7.81729C14.2407 8.10242 14.6779 8.50862 15 9.00073C15.2581 9.40197 15.4333 9.85077 15.5154 10.3207C15.5672 10.6166 15.5863 10.9194 15.6095 11.2194C15.614 11.2487 15.6121 11.2787 15.6042 11.3073C15.5963 11.336 15.5824 11.3626 15.5635 11.3855C15.5446 11.4084 15.5211 11.4271 15.4944 11.4403C15.4678 11.4535 15.4387 11.4609 15.4091 11.4621Z" fill="black"/>
<path d="M12 0C9.62663 0 7.30655 0.703788 5.33316 2.02236C3.35977 3.34094 1.8217 5.21509 0.913451 7.4078C0.00519945 9.60051 -0.232441 12.0133 0.230582 14.3411C0.693605 16.6689 1.83649 18.8071 3.51472 20.4853C5.19295 22.1635 7.33115 23.3064 9.65892 23.7694C11.9867 24.2324 14.3995 23.9948 16.5922 23.0866C18.7849 22.1783 20.6591 20.6402 21.9776 18.6668C23.2962 16.6935 24 14.3734 24 12C24 8.8174 22.7357 5.76516 20.4853 3.51472C18.2349 1.26428 15.1826 0 12 0ZM18.9314 14.0632V14.0795C18.5823 15.4964 17.0032 17.0141 15.5536 17.3305H15.5373C14.3715 17.5549 13.1872 17.6685 12 17.67C11.6536 17.67 11.3046 17.6591 10.9582 17.6386L9.35728 19.3036C9.26928 19.3941 9.15634 19.4563 9.03285 19.4823C8.90937 19.5083 8.78093 19.497 8.66391 19.4498C8.54689 19.4025 8.44659 19.3215 8.37579 19.217C8.30499 19.1126 8.2669 18.9894 8.26637 18.8632V17.2827C7.8903 17.171 7.53247 17.0051 7.2041 16.7905C6.19773 16.1509 5.32501 15.0886 5.0741 14.0795V14.0632C4.64184 12.1008 4.64184 10.0678 5.0741 8.10545V8.08773C5.42319 6.67227 7.00091 5.15455 8.45455 4.83818H8.47091C10.8051 4.39091 13.2031 4.39091 15.5373 4.83818H15.5536C16.3364 5.00864 17.1559 5.52955 17.7996 6.20182C18.345 6.76773 18.7705 7.44273 18.9314 8.09318V8.11091C19.3628 10.0715 19.3628 12.1025 18.9314 14.0632Z" fill="black"/>
</g>
<defs>
<clipPath id="clip0_499_964">
<rect width="24" height="24" fill="white"/>
</clipPath>
</defs>
</svg>
